<?xml version="1.0" standalone="no"?>
<!DOCTYPE svg PUBLIC "-//W3C//DTD SVG 20010904//EN"
 "http://www.w3.org/TR/2001/REC-SVG-20010904/DTD/svg10.dtd">
<svg version="1.0" xmlns="http://www.w3.org/2000/svg"
 width="1024.000000pt" height="1024.000000pt" viewBox="0 0 1024.000000 1024.000000"
 preserveAspectRatio="xMidYMid meet">

<g transform="translate(0.000000,1024.000000) scale(0.100000,-0.100000)"
fill="#000000" stroke="none">
<path d="M4944 8485 c-106 -23 -171 -61 -259 -149 -89 -89 -134 -166 -160
-277 -74 -315 117 -636 426 -715 93 -24 250 -16 346 18 146 52 269 172 333
325 136 324 -52 708 -390 798 -67 18 -214 18 -296 0z"/>
<path d="M4260 7112 c-36 -10 -87 -30 -114 -46 -84 -49 -108 -77 -436 -511
-127 -167 -175 -230 -270 -349 -150 -187 -209 -264 -225 -296 -27 -51 -31
-147 -10 -210 21 -63 19 -61 425 -440 162 -151 340 -318 395 -371 55 -53 121
-115 148 -137 86 -75 178 -80 271 -17 20 13 36 19 36 13 0 -18 -243 -513 -789
-1608 l-506 -1015 0 -95 c0 -82 4 -102 26 -148 l26 -52 -138 0 c-76 0 -150 -5
-166 -11 -68 -26 -98 -90 -69 -148 35 -66 -146 -61 2241 -61 2157 0 2167 0
2195 20 63 45 57 138 -12 180 -28 17 -50 20 -145 20 l-112 0 24 36 c51 74 67
184 43 282 -6 26 -40 121 -75 212 -73 188 -309 802 -503 1310 -72 190 -197
515 -277 724 -120 314 -193 510 -193 522 0 1 21 5 47 9 69 10 116 38 165 96
66 79 293 332 494 552 104 113 192 218 205 245 34 67 34 197 1 262 -32 64
-930 970 -991 1000 -80 40 -162 51 -323 44 l-148 -7 1 -341 c0 -188 4 -559 9
-826 l8 -485 -21 -15 c-31 -22 -707 -354 -711 -349 -2 2 -18 319 -35 704 -32
706 -62 1309 -64 1311 -1 1 -83 4 -182 7 -149 4 -191 3 -245 -11z m1887 -1279
c-235 -255 -325 -348 -331 -342 -7 6 27 182 103 543 28 132 51 245 51 250 0 6
70 -60 156 -146 l157 -157 -136 -148z m-1899 157 c28 -102 72 -270 97 -375 25
-104 49 -205 54 -222 5 -18 6 -33 2 -33 -19 0 -414 351 -499 443 l-24 25 118
144 c141 172 186 220 194 210 4 -4 30 -90 58 -192z m1879 -645 c98 -105 101
-110 88 -135 -28 -55 -62 -80 -105 -80 -36 0 -46 5 -73 37 -18 20 -56 63 -85
96 -39 45 -51 65 -46 81 6 24 100 119 112 114 5 -2 54 -52 109 -113z m-1739
-162 c23 -19 42 -42 42 -51 0 -9 -28 -65 -61 -124 -66 -114 -82 -127 -141
-111 -24 7 -88 75 -88 94 0 4 36 62 80 128 90 137 81 134 168 64z m1029 -901
c17 -42 66 -160 108 -262 152 -369 461 -1130 625 -1540 179 -451 235 -585 257
-616 l22 -34 -1264 0 -1265 0 99 198 c54 108 158 312 231 452 185 356 547
1056 670 1295 166 323 220 422 236 436 27 23 228 147 239 148 6 0 24 -34 42
-77z"/>
<path d="M4993 7057 c-96 -65 -101 -81 -44 -142 36 -39 41 -50 41 -92 0 -49
-30 -384 -71 -795 l-23 -226 49 -59 c78 -92 177 -193 190 -193 11 0 156 161
203 225 l22 30 -25 175 c-15 96 -48 334 -75 529 l-49 354 39 50 c22 27 40 58
40 67 0 25 -156 130 -192 130 -16 0 -59 -21 -105 -53z"/>
</g>
</svg>
