<?xml version="1.0" standalone="no"?>
<!DOCTYPE svg PUBLIC "-//W3C//DTD SVG 20010904//EN"
 "http://www.w3.org/TR/2001/REC-SVG-20010904/DTD/svg10.dtd">
<svg version="1.0" xmlns="http://www.w3.org/2000/svg"
 width="1024.000000pt" height="1024.000000pt" viewBox="0 0 1024.000000 1024.000000"
 preserveAspectRatio="xMidYMid meet">

<g transform="translate(0.000000,1024.000000) scale(0.100000,-0.100000)"
fill="#000000" stroke="none">
<path d="M4891 9140 c-132 -28 -223 -75 -317 -162 -229 -215 -281 -567 -123
-846 41 -71 167 -199 234 -236 28 -15 84 -39 125 -54 67 -24 89 -26 215 -26
131 0 145 2 222 30 113 42 185 88 256 165 71 75 119 151 155 247 24 61 26 80
27 217 0 131 -3 158 -23 215 -72 203 -239 370 -432 431 -74 24 -265 34 -339
19z"/>
<path d="M5625 7631 c-116 -29 -207 -143 -206 -260 0 -71 16 -111 67 -172 21
-25 174 -202 339 -394 165 -192 352 -409 415 -484 128 -150 183 -194 266 -211
101 -21 186 3 264 76 64 60 94 128 94 219 1 130 17 109 -615 796 -341 370
-382 406 -479 428 -51 12 -101 12 -145 2z"/>
<path d="M4195 7566 c-44 -14 -124 -54 -168 -84 -43 -29 -1006 -991 -1033
-1031 -61 -93 -67 -235 -15 -347 30 -63 37 -72 337 -389 88 -93 225 -240 304
-325 79 -85 164 -170 189 -187 65 -46 141 -60 213 -39 136 39 210 131 210 263
1 124 -10 138 -449 599 -99 104 -173 190 -173 201 0 11 100 119 253 271 223
222 257 252 284 252 22 0 38 -8 52 -26 21 -26 21 -37 21 -457 l0 -431 65 -63
c112 -111 160 -256 136 -414 -15 -98 -52 -171 -124 -246 l-60 -63 32 -337 c18
-186 45 -477 61 -648 16 -170 47 -492 69 -715 22 -223 45 -459 51 -525 6 -66
24 -264 41 -440 16 -176 41 -441 55 -588 28 -308 39 -348 112 -426 70 -75 145
-106 252 -106 71 0 94 4 141 26 77 37 133 89 169 161 27 54 30 71 30 149 0 81
-68 994 -90 1209 -12 118 -43 485 -75 900 -14 173 -34 416 -45 538 -23 254
-25 335 -9 364 14 25 67 48 100 41 14 -2 143 -91 285 -196 143 -106 348 -257
457 -337 108 -80 197 -147 197 -150 0 -3 -37 -32 -82 -65 -205 -147 -570 -430
-607 -470 -72 -78 -73 -104 -26 -512 14 -120 29 -247 33 -282 l7 -63 140 108
c77 60 223 173 325 252 102 78 237 184 301 235 64 51 228 180 365 288 137 108
267 216 290 240 111 121 144 315 79 457 -42 91 -97 154 -212 243 -179 138
-744 588 -810 646 l-63 55 0 714 0 714 -53 52 c-29 29 -133 146 -232 260
l-179 207 -36 -87 c-79 -187 -254 -511 -276 -512 -15 0 -135 204 -206 350
-135 281 -215 521 -243 733 l-6 47 -172 -1 c-110 0 -187 -5 -212 -13z"/>
<path d="M4780 7510 c0 -20 42 -206 58 -260 43 -139 195 -200 331 -131 66 34
75 56 62 151 -12 79 -5 163 19 226 l10 24 -240 0 c-156 0 -240 -4 -240 -10z"/>
</g>
</svg>
